<mxfile host="app.diagrams.net" agent="Mozilla/5.0 (Windows NT 10.0; Win64; x64) AppleWebKit/537.36 (KHTML, like Gecko) Chrome/135.0.0.0 Safari/537.36" version="26.2.12">
  <diagram id="C5RBs43oDa-KdzZeNtuy" name="Page-1">
    <mxGraphModel dx="1428" dy="777" grid="1" gridSize="10" guides="1" tooltips="1" connect="1" arrows="1" fold="1" page="1" pageScale="1" pageWidth="827" pageHeight="1169" math="0" shadow="0">
      <root>
        <mxCell id="WIyWlLk6GJQsqaUBKTNV-0" />
        <mxCell id="WIyWlLk6GJQsqaUBKTNV-1" parent="WIyWlLk6GJQsqaUBKTNV-0" />
        <mxCell id="zkfFHV4jXpPFQw0GAbJ--0" value="Enemy" style="swimlane;fontStyle=0;align=center;verticalAlign=top;childLayout=stackLayout;horizontal=1;startSize=26;horizontalStack=0;resizeParent=1;resizeLast=0;collapsible=1;marginBottom=0;rounded=0;shadow=0;strokeWidth=1;" parent="WIyWlLk6GJQsqaUBKTNV-1" vertex="1">
          <mxGeometry x="450" y="515" width="260" height="160" as="geometry">
            <mxRectangle x="230" y="140" width="160" height="26" as="alternateBounds" />
          </mxGeometry>
        </mxCell>
        <mxCell id="zkfFHV4jXpPFQw0GAbJ--1" value="- health: int&#xa;- initialHealth: int" style="text;align=left;verticalAlign=top;spacingLeft=4;spacingRight=4;overflow=hidden;rotatable=0;points=[[0,0.5],[1,0.5]];portConstraint=eastwest;" parent="zkfFHV4jXpPFQw0GAbJ--0" vertex="1">
          <mxGeometry y="26" width="260" height="44" as="geometry" />
        </mxCell>
        <mxCell id="zkfFHV4jXpPFQw0GAbJ--4" value="" style="line;html=1;strokeWidth=1;align=left;verticalAlign=middle;spacingTop=-1;spacingLeft=3;spacingRight=3;rotatable=0;labelPosition=right;points=[];portConstraint=eastwest;" parent="zkfFHV4jXpPFQw0GAbJ--0" vertex="1">
          <mxGeometry y="70" width="260" height="8" as="geometry" />
        </mxCell>
        <mxCell id="zkfFHV4jXpPFQw0GAbJ--5" value="+ Enemy(sn: std::string)&#xa;+ Enemy(sn: std::string, health: int)&#xa;+ setHealth(health: int): void&#xa;+ getHealth(): int&#xa;+ getInitialHealth(): int" style="text;align=left;verticalAlign=top;spacingLeft=4;spacingRight=4;overflow=hidden;rotatable=0;points=[[0,0.5],[1,0.5]];portConstraint=eastwest;spacingTop=0;spacing=2;" parent="zkfFHV4jXpPFQw0GAbJ--0" vertex="1">
          <mxGeometry y="78" width="260" height="82" as="geometry" />
        </mxCell>
        <mxCell id="iXfxLKsfe56xzKZjtCsj-61" value="" style="edgeStyle=orthogonalEdgeStyle;rounded=0;orthogonalLoop=1;jettySize=auto;html=1;entryX=0.534;entryY=1.005;entryDx=0;entryDy=0;entryPerimeter=0;" parent="WIyWlLk6GJQsqaUBKTNV-1" source="iXfxLKsfe56xzKZjtCsj-2" target="iXfxLKsfe56xzKZjtCsj-11" edge="1">
          <mxGeometry relative="1" as="geometry">
            <Array as="points">
              <mxPoint x="880" y="160" />
              <mxPoint x="889" y="160" />
            </Array>
          </mxGeometry>
        </mxCell>
        <mxCell id="iXfxLKsfe56xzKZjtCsj-2" value="Game" style="swimlane;fontStyle=0;align=center;verticalAlign=top;childLayout=stackLayout;horizontal=1;startSize=26;horizontalStack=0;resizeParent=1;resizeLast=0;collapsible=1;marginBottom=0;rounded=0;shadow=0;strokeWidth=1;" parent="WIyWlLk6GJQsqaUBKTNV-1" vertex="1">
          <mxGeometry x="715" y="200" width="330" height="260" as="geometry">
            <mxRectangle x="230" y="140" width="160" height="26" as="alternateBounds" />
          </mxGeometry>
        </mxCell>
        <mxCell id="iXfxLKsfe56xzKZjtCsj-3" value="- gameState: GameStates&#xa;- stages: std::vector&lt;std::shared_ptr&lt;Stage&gt;&gt;&#xa;- main: std::shared_ptr&lt;MainMenu&gt;&#xa;- sm: std::shared_ptr&lt;StageMenu&gt;&#xa;- camera: std::shared_ptr&lt;sf::View&gt; &#xa;- window: std::shared_ptr&lt;sf::RenderWindow&gt;  &#xa;- currentMusic : std::shared_ptr&lt;sf::Music&gt;" style="text;align=left;verticalAlign=top;spacingLeft=4;spacingRight=4;overflow=hidden;rotatable=0;points=[[0,0.5],[1,0.5]];portConstraint=eastwest;" parent="iXfxLKsfe56xzKZjtCsj-2" vertex="1">
          <mxGeometry y="26" width="330" height="134" as="geometry" />
        </mxCell>
        <mxCell id="iXfxLKsfe56xzKZjtCsj-4" value="" style="line;html=1;strokeWidth=1;align=left;verticalAlign=middle;spacingTop=-1;spacingLeft=3;spacingRight=3;rotatable=0;labelPosition=right;points=[];portConstraint=eastwest;" parent="iXfxLKsfe56xzKZjtCsj-2" vertex="1">
          <mxGeometry y="160" width="330" height="8" as="geometry" />
        </mxCell>
        <mxCell id="iXfxLKsfe56xzKZjtCsj-5" value="+ Game()&#xa;+ driverShell(): void &#xa;- playMusic(): void&#xa;- gameDriver(): void&#xa;- constructStages(): void" style="text;align=left;verticalAlign=top;spacingLeft=4;spacingRight=4;overflow=hidden;rotatable=0;points=[[0,0.5],[1,0.5]];portConstraint=eastwest;spacingTop=0;spacing=2;" parent="iXfxLKsfe56xzKZjtCsj-2" vertex="1">
          <mxGeometry y="168" width="330" height="82" as="geometry" />
        </mxCell>
        <mxCell id="iXfxLKsfe56xzKZjtCsj-6" value="Tower" style="swimlane;fontStyle=0;align=center;verticalAlign=top;childLayout=stackLayout;horizontal=1;startSize=26;horizontalStack=0;resizeParent=1;resizeLast=0;collapsible=1;marginBottom=0;rounded=0;shadow=0;strokeWidth=1;" parent="WIyWlLk6GJQsqaUBKTNV-1" vertex="1">
          <mxGeometry x="760" y="515" width="260" height="160" as="geometry">
            <mxRectangle x="230" y="140" width="160" height="26" as="alternateBounds" />
          </mxGeometry>
        </mxCell>
        <mxCell id="iXfxLKsfe56xzKZjtCsj-7" value="- attack: int&#xa;- cost: int" style="text;align=left;verticalAlign=top;spacingLeft=4;spacingRight=4;overflow=hidden;rotatable=0;points=[[0,0.5],[1,0.5]];portConstraint=eastwest;" parent="iXfxLKsfe56xzKZjtCsj-6" vertex="1">
          <mxGeometry y="26" width="260" height="44" as="geometry" />
        </mxCell>
        <mxCell id="iXfxLKsfe56xzKZjtCsj-8" value="" style="line;html=1;strokeWidth=1;align=left;verticalAlign=middle;spacingTop=-1;spacingLeft=3;spacingRight=3;rotatable=0;labelPosition=right;points=[];portConstraint=eastwest;" parent="iXfxLKsfe56xzKZjtCsj-6" vertex="1">
          <mxGeometry y="70" width="260" height="8" as="geometry" />
        </mxCell>
        <mxCell id="iXfxLKsfe56xzKZjtCsj-9" value="+ Tower(sn: std::string)&#xa;+ Tower(sn: std::string, health: int)&#xa;+ setHealth(health: int): void&#xa;+ getAttack(): int&#xa;+ getCost(): int" style="text;align=left;verticalAlign=top;spacingLeft=4;spacingRight=4;overflow=hidden;rotatable=0;points=[[0,0.5],[1,0.5]];portConstraint=eastwest;spacingTop=0;spacing=2;" parent="iXfxLKsfe56xzKZjtCsj-6" vertex="1">
          <mxGeometry y="78" width="260" height="72" as="geometry" />
        </mxCell>
        <mxCell id="iXfxLKsfe56xzKZjtCsj-10" value="&lt;&lt;enumeration&gt;&gt;&#xa;GameStates" style="swimlane;fontStyle=0;align=center;verticalAlign=top;childLayout=stackLayout;horizontal=1;startSize=40;horizontalStack=0;resizeParent=1;resizeLast=0;collapsible=1;marginBottom=0;rounded=0;shadow=0;strokeWidth=1;" parent="WIyWlLk6GJQsqaUBKTNV-1" vertex="1">
          <mxGeometry x="750" y="20" width="260" height="114" as="geometry">
            <mxRectangle x="230" y="140" width="160" height="26" as="alternateBounds" />
          </mxGeometry>
        </mxCell>
        <mxCell id="iXfxLKsfe56xzKZjtCsj-11" value="MAIN_MENU,&#xa;STAGE_MENU,&#xa;STAGE_1,&#xa;STAGE_2" style="text;align=left;verticalAlign=top;spacingLeft=4;spacingRight=4;overflow=hidden;rotatable=0;points=[[0,0.5],[1,0.5]];portConstraint=eastwest;" parent="iXfxLKsfe56xzKZjtCsj-10" vertex="1">
          <mxGeometry y="40" width="260" height="74" as="geometry" />
        </mxCell>
        <mxCell id="iXfxLKsfe56xzKZjtCsj-18" value="NewSprite" style="swimlane;fontStyle=0;align=center;verticalAlign=top;childLayout=stackLayout;horizontal=1;startSize=26;horizontalStack=0;resizeParent=1;resizeLast=0;collapsible=1;marginBottom=0;rounded=0;shadow=0;strokeWidth=1;" parent="WIyWlLk6GJQsqaUBKTNV-1" vertex="1">
          <mxGeometry x="700" y="760" width="260" height="120" as="geometry">
            <mxRectangle x="230" y="140" width="160" height="26" as="alternateBounds" />
          </mxGeometry>
        </mxCell>
        <mxCell id="iXfxLKsfe56xzKZjtCsj-19" value="+ sprite: std::shared_ptr&lt;sf::Sprite&gt;&#xa;+ texture: std::shared_ptr&lt;sf::Texture&gt;&#xa;+ spriteName: std::string" style="text;align=left;verticalAlign=top;spacingLeft=4;spacingRight=4;overflow=hidden;rotatable=0;points=[[0,0.5],[1,0.5]];portConstraint=eastwest;" parent="iXfxLKsfe56xzKZjtCsj-18" vertex="1">
          <mxGeometry y="26" width="260" height="54" as="geometry" />
        </mxCell>
        <mxCell id="iXfxLKsfe56xzKZjtCsj-20" value="" style="line;html=1;strokeWidth=1;align=left;verticalAlign=middle;spacingTop=-1;spacingLeft=3;spacingRight=3;rotatable=0;labelPosition=right;points=[];portConstraint=eastwest;" parent="iXfxLKsfe56xzKZjtCsj-18" vertex="1">
          <mxGeometry y="80" width="260" height="8" as="geometry" />
        </mxCell>
        <mxCell id="iXfxLKsfe56xzKZjtCsj-21" value="+ NewSprite(sn: std::string)" style="text;align=left;verticalAlign=top;spacingLeft=4;spacingRight=4;overflow=hidden;rotatable=0;points=[[0,0.5],[1,0.5]];portConstraint=eastwest;spacingTop=0;spacing=2;" parent="iXfxLKsfe56xzKZjtCsj-18" vertex="1">
          <mxGeometry y="88" width="260" height="32" as="geometry" />
        </mxCell>
        <mxCell id="iXfxLKsfe56xzKZjtCsj-22" value="Screen" style="swimlane;fontStyle=0;align=center;verticalAlign=top;childLayout=stackLayout;horizontal=1;startSize=26;horizontalStack=0;resizeParent=1;resizeLast=0;collapsible=1;marginBottom=0;rounded=0;shadow=0;strokeWidth=1;" parent="WIyWlLk6GJQsqaUBKTNV-1" vertex="1">
          <mxGeometry x="625" y="920" width="350" height="160" as="geometry">
            <mxRectangle x="230" y="140" width="160" height="26" as="alternateBounds" />
          </mxGeometry>
        </mxCell>
        <mxCell id="iXfxLKsfe56xzKZjtCsj-23" value="# spriteLocation: std::string  &#xa;# window: std::shared_ptr&lt;sf::RenderWindow&gt; &#xa;# gs: GameStates*" style="text;align=left;verticalAlign=top;spacingLeft=4;spacingRight=4;overflow=hidden;rotatable=0;points=[[0,0.5],[1,0.5]];portConstraint=eastwest;" parent="iXfxLKsfe56xzKZjtCsj-22" vertex="1">
          <mxGeometry y="26" width="350" height="54" as="geometry" />
        </mxCell>
        <mxCell id="iXfxLKsfe56xzKZjtCsj-24" value="" style="line;html=1;strokeWidth=1;align=left;verticalAlign=middle;spacingTop=-1;spacingLeft=3;spacingRight=3;rotatable=0;labelPosition=right;points=[];portConstraint=eastwest;" parent="iXfxLKsfe56xzKZjtCsj-22" vertex="1">
          <mxGeometry y="80" width="350" height="8" as="geometry" />
        </mxCell>
        <mxCell id="iXfxLKsfe56xzKZjtCsj-25" value="+ driver(window: std::shared_ptr&lt;sf::RenderWindow&gt;): void&#xa;" style="text;align=left;verticalAlign=top;spacingLeft=4;spacingRight=4;overflow=hidden;rotatable=0;points=[[0,0.5],[1,0.5]];portConstraint=eastwest;spacingTop=0;spacing=2;fontStyle=2" parent="iXfxLKsfe56xzKZjtCsj-22" vertex="1">
          <mxGeometry y="88" width="350" height="22" as="geometry" />
        </mxCell>
        <mxCell id="iXfxLKsfe56xzKZjtCsj-49" value="+ setGameState(ns: GameStates*)&#xa;# isClicked(sprite: std::shared_ptr&lt;T&gt;): bool " style="text;align=left;verticalAlign=top;spacingLeft=4;spacingRight=4;overflow=hidden;rotatable=0;points=[[0,0.5],[1,0.5]];portConstraint=eastwest;spacingTop=0;spacing=2;fontStyle=0" parent="iXfxLKsfe56xzKZjtCsj-22" vertex="1">
          <mxGeometry y="110" width="350" height="50" as="geometry" />
        </mxCell>
        <mxCell id="iXfxLKsfe56xzKZjtCsj-68" style="edgeStyle=orthogonalEdgeStyle;rounded=0;orthogonalLoop=1;jettySize=auto;html=1;entryX=0.25;entryY=0;entryDx=0;entryDy=0;" parent="WIyWlLk6GJQsqaUBKTNV-1" source="iXfxLKsfe56xzKZjtCsj-26" target="iXfxLKsfe56xzKZjtCsj-34" edge="1">
          <mxGeometry relative="1" as="geometry" />
        </mxCell>
        <mxCell id="iXfxLKsfe56xzKZjtCsj-26" value="Stage" style="swimlane;fontStyle=0;align=center;verticalAlign=top;childLayout=stackLayout;horizontal=1;startSize=26;horizontalStack=0;resizeParent=1;resizeLast=0;collapsible=1;marginBottom=0;rounded=0;shadow=0;strokeWidth=1;" parent="WIyWlLk6GJQsqaUBKTNV-1" vertex="1">
          <mxGeometry x="1140" y="20" width="490" height="790" as="geometry">
            <mxRectangle x="230" y="140" width="160" height="26" as="alternateBounds" />
          </mxGeometry>
        </mxCell>
        <mxCell id="iXfxLKsfe56xzKZjtCsj-27" value="- endFont: sf::Font&#xa;- stageFont: sf::Font&#xa;- roundText: sf::Text &#xa;- healthText: sf::Text &#xa;- moneyText: sf::Text &#xa;- stageState: StageStates&#xa;- needsConstruction: bool  &#xa;- towerDrag: bool &#xa;- towerPos: int &#xa;- maxRounds: int  &#xa;- currentRound: int&#xa;- frameCount: int  &#xa;- health: int  &#xa;- money: int &#xa;- pathLocation: std::string  &#xa;- enemyLocation: std::string &#xa;- pathSpriteLocation: std::string &#xa;- backgroundSpriteLocation: std::string   &#xa;- pathFileLocation: std::string  &#xa;- enemyFileLocation: std::string&#xa;- button: std::shared_ptr&lt;NewSprite&gt;  &#xa;- finishedButton: std::shared_ptr&lt;NewSprite&gt; &#xa;- pathSprite: std::shared_ptr&lt;NewSprite&gt; &#xa;- background: std::shared_ptr&lt;NewSprite&gt; &#xa;- directions: std::vector&lt;char&gt; &#xa;- path: std::vector&lt;std::shared_ptr&lt;NewSprite&gt;&gt;&#xa;- roundEnemies: std::vector&lt;std::shared_ptr&lt;Enemy&gt;&gt; &#xa;- stageTowers: std::vector&lt;std::shared_ptr&lt;Tower&gt;&gt;&#xa;- placedTowers: std::vector&lt;std::shared_ptr&lt;Tower&gt;&gt;&#xa;- placedTowerRadius: std::vector&lt;std::shared_ptr&lt;NewSprite&gt;&gt;&#xa;- correspondingTile: std::vector&lt;int&gt;&#xa;- towerCostText: std::vector&lt;std::shared_ptr&lt;sf::Text&gt;&gt;&#xa;- isDead: std::vector&lt;bool&gt;&#xa;- originalPos: sf::Vector2f " style="text;align=left;verticalAlign=top;spacingLeft=4;spacingRight=4;overflow=hidden;rotatable=0;points=[[0,0.5],[1,0.5]];portConstraint=eastwest;" parent="iXfxLKsfe56xzKZjtCsj-26" vertex="1">
          <mxGeometry y="26" width="490" height="494" as="geometry" />
        </mxCell>
        <mxCell id="iXfxLKsfe56xzKZjtCsj-28" value="" style="line;html=1;strokeWidth=1;align=left;verticalAlign=middle;spacingTop=-1;spacingLeft=3;spacingRight=3;rotatable=0;labelPosition=right;points=[];portConstraint=eastwest;" parent="iXfxLKsfe56xzKZjtCsj-26" vertex="1">
          <mxGeometry y="520" width="490" height="8" as="geometry" />
        </mxCell>
        <mxCell id="iXfxLKsfe56xzKZjtCsj-29" value="+ Stage()&#xa;+ driver(window: std::shared_ptr&lt;sf::RenderWindow&gt;): void&#xa;- constructPath(): void &#xa;- constructTowers(): void &#xa;- constructRound(round: int): void;&#xa;- towerDriver(): void &#xa;- roundDriver(): void &#xa;- finishedDriver(finishedText: std::string): void &#xa;- reset(): void &#xa;- moveEnemies(): void &#xa;- hoverTower(): void&#xa;- getEnemyType(type: char): std::shared_ptr&lt;Enemy&gt;&#xa;- calculatePosition(initialPos: sf::Vector2f, direction: char , count: int, size: int): sf::Vector2f  " style="text;align=left;verticalAlign=top;spacingLeft=4;spacingRight=4;overflow=hidden;rotatable=0;points=[[0,0.5],[1,0.5]];portConstraint=eastwest;spacingTop=0;spacing=2;" parent="iXfxLKsfe56xzKZjtCsj-26" vertex="1">
          <mxGeometry y="528" width="490" height="212" as="geometry" />
        </mxCell>
        <mxCell id="iXfxLKsfe56xzKZjtCsj-30" value="StageMenu" style="swimlane;fontStyle=0;align=center;verticalAlign=top;childLayout=stackLayout;horizontal=1;startSize=26;horizontalStack=0;resizeParent=1;resizeLast=0;collapsible=1;marginBottom=0;rounded=0;shadow=0;strokeWidth=1;" parent="WIyWlLk6GJQsqaUBKTNV-1" vertex="1">
          <mxGeometry x="30" y="980" width="340" height="160" as="geometry">
            <mxRectangle x="230" y="140" width="160" height="26" as="alternateBounds" />
          </mxGeometry>
        </mxCell>
        <mxCell id="iXfxLKsfe56xzKZjtCsj-31" value="- stageOneButton: std::shared_ptr&lt;NewSprite&gt; &#xa;- stageTwoButton: std::shared_ptr&lt;NewSprite&gt;&#xa;- background: std::shared_ptr&lt;NewSprite&gt;" style="text;align=left;verticalAlign=top;spacingLeft=4;spacingRight=4;overflow=hidden;rotatable=0;points=[[0,0.5],[1,0.5]];portConstraint=eastwest;" parent="iXfxLKsfe56xzKZjtCsj-30" vertex="1">
          <mxGeometry y="26" width="340" height="54" as="geometry" />
        </mxCell>
        <mxCell id="iXfxLKsfe56xzKZjtCsj-32" value="" style="line;html=1;strokeWidth=1;align=left;verticalAlign=middle;spacingTop=-1;spacingLeft=3;spacingRight=3;rotatable=0;labelPosition=right;points=[];portConstraint=eastwest;" parent="iXfxLKsfe56xzKZjtCsj-30" vertex="1">
          <mxGeometry y="80" width="340" height="8" as="geometry" />
        </mxCell>
        <mxCell id="iXfxLKsfe56xzKZjtCsj-33" value="+ StageMenu()&#xa;+ driver(window: std::shared_ptr&lt;sf::RenderWindow&gt;): void" style="text;align=left;verticalAlign=top;spacingLeft=4;spacingRight=4;overflow=hidden;rotatable=0;points=[[0,0.5],[1,0.5]];portConstraint=eastwest;spacingTop=0;spacing=2;" parent="iXfxLKsfe56xzKZjtCsj-30" vertex="1">
          <mxGeometry y="88" width="340" height="42" as="geometry" />
        </mxCell>
        <mxCell id="iXfxLKsfe56xzKZjtCsj-34" value="&lt;&lt;enumeration&gt;&gt;&#xa;StageStates" style="swimlane;fontStyle=0;align=center;verticalAlign=top;childLayout=stackLayout;horizontal=1;startSize=40;horizontalStack=0;resizeParent=1;resizeLast=0;collapsible=1;marginBottom=0;rounded=0;shadow=0;strokeWidth=1;" parent="WIyWlLk6GJQsqaUBKTNV-1" vertex="1">
          <mxGeometry x="1360" y="990" width="260" height="114" as="geometry">
            <mxRectangle x="230" y="140" width="160" height="26" as="alternateBounds" />
          </mxGeometry>
        </mxCell>
        <mxCell id="iXfxLKsfe56xzKZjtCsj-35" value="ROUND,&#xa;TOWER,&#xa;WIN,&#xa;LOOSE" style="text;align=left;verticalAlign=top;spacingLeft=4;spacingRight=4;overflow=hidden;rotatable=0;points=[[0,0.5],[1,0.5]];portConstraint=eastwest;" parent="iXfxLKsfe56xzKZjtCsj-34" vertex="1">
          <mxGeometry y="40" width="260" height="74" as="geometry" />
        </mxCell>
        <mxCell id="iXfxLKsfe56xzKZjtCsj-43" value="MainMenu" style="swimlane;fontStyle=0;align=center;verticalAlign=top;childLayout=stackLayout;horizontal=1;startSize=26;horizontalStack=0;resizeParent=1;resizeLast=0;collapsible=1;marginBottom=0;rounded=0;shadow=0;strokeWidth=1;" parent="WIyWlLk6GJQsqaUBKTNV-1" vertex="1">
          <mxGeometry x="30" y="710" width="340" height="140" as="geometry">
            <mxRectangle x="230" y="140" width="160" height="26" as="alternateBounds" />
          </mxGeometry>
        </mxCell>
        <mxCell id="iXfxLKsfe56xzKZjtCsj-44" value="- stageButton: std::shared_ptr&lt;NewSprite&gt; &#xa;- quitButton: std::shared_ptr&lt;NewSprite&gt;&#xa;- background: std::shared_ptr&lt;NewSprite&gt;" style="text;align=left;verticalAlign=top;spacingLeft=4;spacingRight=4;overflow=hidden;rotatable=0;points=[[0,0.5],[1,0.5]];portConstraint=eastwest;" parent="iXfxLKsfe56xzKZjtCsj-43" vertex="1">
          <mxGeometry y="26" width="340" height="54" as="geometry" />
        </mxCell>
        <mxCell id="iXfxLKsfe56xzKZjtCsj-45" value="" style="line;html=1;strokeWidth=1;align=left;verticalAlign=middle;spacingTop=-1;spacingLeft=3;spacingRight=3;rotatable=0;labelPosition=right;points=[];portConstraint=eastwest;" parent="iXfxLKsfe56xzKZjtCsj-43" vertex="1">
          <mxGeometry y="80" width="340" height="8" as="geometry" />
        </mxCell>
        <mxCell id="iXfxLKsfe56xzKZjtCsj-46" value="+ MainMenu()&#xa;+ driver(window: std::shared_ptr&lt;sf::RenderWindow&gt;): void" style="text;align=left;verticalAlign=top;spacingLeft=4;spacingRight=4;overflow=hidden;rotatable=0;points=[[0,0.5],[1,0.5]];portConstraint=eastwest;spacingTop=0;spacing=2;" parent="iXfxLKsfe56xzKZjtCsj-43" vertex="1">
          <mxGeometry y="88" width="340" height="42" as="geometry" />
        </mxCell>
        <mxCell id="iXfxLKsfe56xzKZjtCsj-52" style="edgeStyle=orthogonalEdgeStyle;rounded=0;orthogonalLoop=1;jettySize=auto;html=1;entryX=0;entryY=0.5;entryDx=0;entryDy=0;" parent="WIyWlLk6GJQsqaUBKTNV-1" source="iXfxLKsfe56xzKZjtCsj-3" target="iXfxLKsfe56xzKZjtCsj-27" edge="1">
          <mxGeometry relative="1" as="geometry" />
        </mxCell>
        <mxCell id="iXfxLKsfe56xzKZjtCsj-53" value="" style="endArrow=block;html=1;rounded=0;align=center;verticalAlign=bottom;endFill=0;labelBackgroundColor=none;endSize=8;entryX=1;entryY=0.5;entryDx=0;entryDy=0;" parent="WIyWlLk6GJQsqaUBKTNV-1" target="iXfxLKsfe56xzKZjtCsj-23" edge="1">
          <mxGeometry x="-0.5" y="-30" relative="1" as="geometry">
            <mxPoint x="1200" y="810" as="sourcePoint" />
            <mxPoint x="1360" y="840" as="targetPoint" />
            <mxPoint as="offset" />
          </mxGeometry>
        </mxCell>
        <mxCell id="iXfxLKsfe56xzKZjtCsj-55" value="" style="endArrow=block;html=1;rounded=0;align=center;verticalAlign=bottom;endFill=0;labelBackgroundColor=none;endSize=8;entryX=0.75;entryY=0;entryDx=0;entryDy=0;" parent="WIyWlLk6GJQsqaUBKTNV-1" target="iXfxLKsfe56xzKZjtCsj-18" edge="1">
          <mxGeometry x="-0.5" y="-30" relative="1" as="geometry">
            <mxPoint x="880" y="680" as="sourcePoint" />
            <mxPoint x="1370" y="850" as="targetPoint" />
            <mxPoint as="offset" />
          </mxGeometry>
        </mxCell>
        <mxCell id="iXfxLKsfe56xzKZjtCsj-56" value="" style="endArrow=block;html=1;rounded=0;align=center;verticalAlign=bottom;endFill=0;labelBackgroundColor=none;endSize=8;exitX=1.012;exitY=0.273;exitDx=0;exitDy=0;exitPerimeter=0;entryX=0.182;entryY=-0.017;entryDx=0;entryDy=0;entryPerimeter=0;" parent="WIyWlLk6GJQsqaUBKTNV-1" source="zkfFHV4jXpPFQw0GAbJ--5" target="iXfxLKsfe56xzKZjtCsj-18" edge="1">
          <mxGeometry x="-0.5" y="-30" relative="1" as="geometry">
            <mxPoint x="975" y="770" as="sourcePoint" />
            <mxPoint x="1135" y="770" as="targetPoint" />
            <mxPoint as="offset" />
          </mxGeometry>
        </mxCell>
        <mxCell id="iXfxLKsfe56xzKZjtCsj-57" value="" style="endArrow=block;html=1;rounded=0;align=center;verticalAlign=bottom;endFill=0;labelBackgroundColor=none;endSize=8;exitX=1.011;exitY=0.671;exitDx=0;exitDy=0;exitPerimeter=0;entryX=0;entryY=0.5;entryDx=0;entryDy=0;" parent="WIyWlLk6GJQsqaUBKTNV-1" source="iXfxLKsfe56xzKZjtCsj-31" target="iXfxLKsfe56xzKZjtCsj-23" edge="1">
          <mxGeometry x="-0.5" y="-30" relative="1" as="geometry">
            <mxPoint x="450" y="980" as="sourcePoint" />
            <mxPoint x="610" y="980" as="targetPoint" />
            <mxPoint as="offset" />
          </mxGeometry>
        </mxCell>
        <mxCell id="iXfxLKsfe56xzKZjtCsj-58" value="" style="endArrow=block;html=1;rounded=0;align=center;verticalAlign=bottom;endFill=0;labelBackgroundColor=none;endSize=8;exitX=1.011;exitY=0.973;exitDx=0;exitDy=0;exitPerimeter=0;entryX=0.007;entryY=0.139;entryDx=0;entryDy=0;entryPerimeter=0;" parent="WIyWlLk6GJQsqaUBKTNV-1" source="iXfxLKsfe56xzKZjtCsj-44" target="iXfxLKsfe56xzKZjtCsj-22" edge="1">
          <mxGeometry x="-0.5" y="-30" relative="1" as="geometry">
            <mxPoint x="440" y="920" as="sourcePoint" />
            <mxPoint x="600" y="920" as="targetPoint" />
            <mxPoint as="offset" />
          </mxGeometry>
        </mxCell>
        <mxCell id="iXfxLKsfe56xzKZjtCsj-59" style="edgeStyle=orthogonalEdgeStyle;rounded=0;orthogonalLoop=1;jettySize=auto;html=1;entryX=0.5;entryY=0;entryDx=0;entryDy=0;" parent="WIyWlLk6GJQsqaUBKTNV-1" source="iXfxLKsfe56xzKZjtCsj-3" target="iXfxLKsfe56xzKZjtCsj-43" edge="1">
          <mxGeometry relative="1" as="geometry" />
        </mxCell>
        <mxCell id="iXfxLKsfe56xzKZjtCsj-60" style="edgeStyle=orthogonalEdgeStyle;rounded=0;orthogonalLoop=1;jettySize=auto;html=1;entryX=1;entryY=0.5;entryDx=0;entryDy=0;" parent="WIyWlLk6GJQsqaUBKTNV-1" source="iXfxLKsfe56xzKZjtCsj-5" target="iXfxLKsfe56xzKZjtCsj-33" edge="1">
          <mxGeometry relative="1" as="geometry">
            <mxPoint x="420" y="1093.6363636363637" as="targetPoint" />
            <Array as="points">
              <mxPoint x="400" y="409" />
              <mxPoint x="400" y="1089" />
            </Array>
          </mxGeometry>
        </mxCell>
        <mxCell id="iXfxLKsfe56xzKZjtCsj-62" style="edgeStyle=orthogonalEdgeStyle;rounded=0;orthogonalLoop=1;jettySize=auto;html=1;entryX=1.01;entryY=0.836;entryDx=0;entryDy=0;entryPerimeter=0;" parent="WIyWlLk6GJQsqaUBKTNV-1" source="iXfxLKsfe56xzKZjtCsj-29" target="iXfxLKsfe56xzKZjtCsj-19" edge="1">
          <mxGeometry relative="1" as="geometry" />
        </mxCell>
        <mxCell id="iXfxLKsfe56xzKZjtCsj-63" style="edgeStyle=orthogonalEdgeStyle;rounded=0;orthogonalLoop=1;jettySize=auto;html=1;entryX=0;entryY=0.5;entryDx=0;entryDy=0;" parent="WIyWlLk6GJQsqaUBKTNV-1" source="iXfxLKsfe56xzKZjtCsj-44" target="iXfxLKsfe56xzKZjtCsj-19" edge="1">
          <mxGeometry relative="1" as="geometry" />
        </mxCell>
        <mxCell id="iXfxLKsfe56xzKZjtCsj-65" style="edgeStyle=orthogonalEdgeStyle;rounded=0;orthogonalLoop=1;jettySize=auto;html=1;entryX=-0.008;entryY=0.791;entryDx=0;entryDy=0;entryPerimeter=0;" parent="WIyWlLk6GJQsqaUBKTNV-1" source="iXfxLKsfe56xzKZjtCsj-31" target="iXfxLKsfe56xzKZjtCsj-19" edge="1">
          <mxGeometry relative="1" as="geometry">
            <mxPoint x="680" y="833" as="targetPoint" />
          </mxGeometry>
        </mxCell>
        <mxCell id="iXfxLKsfe56xzKZjtCsj-66" style="edgeStyle=orthogonalEdgeStyle;rounded=0;orthogonalLoop=1;jettySize=auto;html=1;entryX=1.003;entryY=0.909;entryDx=0;entryDy=0;entryPerimeter=0;" parent="WIyWlLk6GJQsqaUBKTNV-1" source="iXfxLKsfe56xzKZjtCsj-29" target="iXfxLKsfe56xzKZjtCsj-7" edge="1">
          <mxGeometry relative="1" as="geometry" />
        </mxCell>
        <mxCell id="iXfxLKsfe56xzKZjtCsj-67" style="edgeStyle=orthogonalEdgeStyle;rounded=0;orthogonalLoop=1;jettySize=auto;html=1;entryX=0.695;entryY=0.006;entryDx=0;entryDy=0;entryPerimeter=0;" parent="WIyWlLk6GJQsqaUBKTNV-1" source="iXfxLKsfe56xzKZjtCsj-29" target="zkfFHV4jXpPFQw0GAbJ--0" edge="1">
          <mxGeometry relative="1" as="geometry">
            <mxPoint x="630" y="490" as="targetPoint" />
            <Array as="points">
              <mxPoint x="1070" y="654" />
              <mxPoint x="1070" y="500" />
              <mxPoint x="710" y="500" />
              <mxPoint x="710" y="480" />
              <mxPoint x="631" y="480" />
            </Array>
          </mxGeometry>
        </mxCell>
        <mxCell id="iXfxLKsfe56xzKZjtCsj-69" style="edgeStyle=orthogonalEdgeStyle;rounded=0;orthogonalLoop=1;jettySize=auto;html=1;entryX=1;entryY=0.5;entryDx=0;entryDy=0;" parent="WIyWlLk6GJQsqaUBKTNV-1" source="iXfxLKsfe56xzKZjtCsj-23" target="iXfxLKsfe56xzKZjtCsj-11" edge="1">
          <mxGeometry relative="1" as="geometry">
            <Array as="points">
              <mxPoint x="1090" y="990" />
              <mxPoint x="1090" y="83" />
            </Array>
          </mxGeometry>
        </mxCell>
      </root>
    </mxGraphModel>
  </diagram>
</mxfile>
